# xmcd
#
# Track frame offsets:
#	150
#	16081
#	29991
#	42548
#	56350
#	68619
#	81730
#	101904
#	119829
#	141758
#	158293
#	170773
#	182249
#
# Disc length: 2576 seconds
#
# Revision: 0
# Processed by: cddbd v1.5.2PL0 Copyright (c) Steve Scherf et al.
# Submitted via: EZCDAudioConverter 2.7.0.1
#
DISCID=bc0a0e0d
DTITLE=Ball Ranch Family - In Jesus' Lap
DYEAR=2008
DGENRE=Gospel
TTITLE0=I Don't Understand
TTITLE1=In The Secret
TTITLE2=What a Friend We Have In Jesus
TTITLE3=My House In Order
TTITLE4=Slow Down and Live
TTITLE5=I Exalt Thee
TTITLE6=Going Home
TTITLE7=It Is Well
TTITLE8=God In The Canyon
TTITLE9=In Jesus' Lap
TTITLE10=Where The Roses Never Fade
TTITLE11=Keep On the Sunnyside
TTITLE12=When The Roll Is Called Up Yonder
EXTD=
EXTT0=
EXTT1=
EXTT2=
EXTT3=
EXTT4=
EXTT5=
EXTT6=
EXTT7=
EXTT8=
EXTT9=
EXTT10=
EXTT11=
EXTT12=
PLAYORDER=
